<?xml version="1.0" standalone="no"?><!DOCTYPE svg PUBLIC "-//W3C//DTD SVG 1.1//EN" "http://www.w3.org/Graphics/SVG/1.1/DTD/svg11.dtd"><svg t="1706173663455" class="icon" viewBox="0 0 1024 1024" version="1.1" xmlns="http://www.w3.org/2000/svg" p-id="1595" xmlns:xlink="http://www.w3.org/1999/xlink" width="200" height="200"><path d="M703.4 170.494c17.79-8.876 39.408-1.65 48.285 16.141 8.876 17.791 1.65 39.41-16.141 48.286L321.6 441.449c-17.79 8.876-39.408 1.65-48.285-16.141-8.876-17.79-1.65-39.409 16.141-48.285L703.4 170.494z" fill="#ED6D0F" p-id="1596"></path><path d="M496.4 66.8L82.9 273.55a36 36 0 0 0-19.9 32.2v413.5a36 36 0 0 0 19.9 32.2L496.4 958.2a36 36 0 0 0 32.2 0l413.5-206.75a36 36 0 0 0 19.9-32.2v-413.5a36 36 0 0 0-19.9-32.2L528.6 66.8a36 36 0 0 0-32.2 0z m16.1 72.449L890 327.999V697L512.5 885.75 135 697.001V327.999l377.5-188.75z" fill="#000000" p-id="1597"></path><path d="M66.787 289.456c8.876-17.79 30.494-25.017 48.285-16.14l413.943 206.528c17.791 8.876 25.018 30.494 16.141 48.285-8.876 17.79-30.494 25.017-48.285 16.141L82.928 337.742c-17.79-8.877-25.018-30.495-16.141-48.286z" fill="#000000" p-id="1598"></path><path d="M513.386 476.057c19.883 0 36 16.118 36 36V926c0 19.882-16.117 36-36 36-19.882 0-36-16.118-36-36V512.057c0-19.882 16.118-36 36-36z" fill="#000000" p-id="1599"></path><path d="M909.928 273.315c17.79-8.876 39.409-1.65 48.285 16.141 8.877 17.791 1.65 39.41-16.14 48.286L528.128 544.27c-17.79 8.876-39.409 1.65-48.285-16.141-8.877-17.79-1.65-39.409 16.14-48.285l413.944-206.529z" fill="#000000" p-id="1600"></path></svg>