<?xml version="1.0" standalone="no"?><!DOCTYPE svg PUBLIC "-//W3C//DTD SVG 1.1//EN" "http://www.w3.org/Graphics/SVG/1.1/DTD/svg11.dtd"><svg t="1706173097869" class="icon" viewBox="0 0 1024 1024" version="1.1" xmlns="http://www.w3.org/2000/svg" p-id="1302" xmlns:xlink="http://www.w3.org/1999/xlink" width="200" height="200"><path d="M481.592 53.73L340.644 276.148 85.556 341.467l-0.763 0.203c-25.019 6.965-34.709 37.503-18.03 57.637L234.74 602.086l-16.705 262.788-0.042 0.789c-1.107 25.947 24.941 44.6 49.244 34.959L512 803.527l244.763 97.095 0.737 0.283c24.335 9.071 50.124-9.939 48.465-36.03L789.26 602.086l167.978-202.78 0.498-0.613c16.146-20.34 6.036-50.742-19.291-57.227l-255.089-65.319L542.408 53.73c-14.135-22.307-46.68-22.307-60.816 0zM512 140.255l118.183 186.497 0.286 0.444a36 36 0 0 0 21.192 15.16l213.889 54.768-140.848 170.03-0.34 0.417a36 36 0 0 0-7.864 24.832l14.008 220.345-205.232-81.413-0.523-0.203a36 36 0 0 0-26.025 0.203l-205.233 81.413 14.009-220.345 0.03-0.538a36 36 0 0 0-8.234-24.711l-140.849-170.03 213.89-54.767a36 36 0 0 0 21.478-15.605L512 140.255z" fill="#000000" p-id="1303"></path><path d="M380.685 420.044c13.919-13.918 36.398-14.057 50.488-0.417l0.424 0.417c43.688 43.688 114.249 44.125 158.474 1.31l1.332-1.31c14.059-14.059 36.853-14.059 50.912 0 14.059 14.059 14.059 36.853 0 50.912-72.247 72.247-189.383 72.247-261.63 0-14.059-14.059-14.059-36.853 0-50.912z" fill="#ED6D0F" p-id="1304"></path></svg>