<?xml version="1.0" standalone="no"?><!DOCTYPE svg PUBLIC "-//W3C//DTD SVG 1.1//EN" "http://www.w3.org/Graphics/SVG/1.1/DTD/svg11.dtd"><svg t="1706172677812" class="icon" viewBox="0 0 1024 1024" version="1.1" xmlns="http://www.w3.org/2000/svg" p-id="1157" xmlns:xlink="http://www.w3.org/1999/xlink" width="200" height="200"><path d="M872.98 540.905l-360.48 82.37-360.48-82.37C129.48 535.755 108 552.88 108 576v221c0 86.156 69.844 156 156 156h497c86.156 0 156-69.844 156-156V576c0-23.12-21.481-40.245-44.02-35.095zM845 621.153V797c0 46.392-37.608 84-84 84H264l-1.39-0.011C216.86 880.247 180 842.928 180 797V621.153l324.48 74.145a36 36 0 0 0 16.04 0L845 621.153z" fill="#000000" p-id="1158"></path><path d="M688 130c75.11 0 136 60.89 136 136v330c0 19.882-16.118 36-36 36s-36-16.118-36-36V266c0-35.346-28.654-64-64-64H337c-35.346 0-64 28.654-64 64v330c0 19.882-16.118 36-36 36s-36-16.118-36-36V266c0-75.11 60.89-136 136-136h351z" fill="#000000" p-id="1159"></path><path d="M659.798 290.845c19.882-0.111 36.09 15.916 36.202 35.798 0.111 19.882-15.916 36.09-35.798 36.201l-295 1.656c-19.882 0.111-36.09-15.916-36.202-35.798-0.111-19.882 15.916-36.09 35.798-36.201l295-1.656zM365.056 444.5l221 0.345c19.882 0.03 35.975 16.174 35.944 36.056-0.031 19.882-16.174 35.975-36.056 35.944l-221-0.345c-19.882-0.031-35.975-16.174-35.944-36.056 0.031-19.882 16.174-35.975 36.056-35.944z" fill="#ED6D0F" p-id="1160"></path></svg>