<?xml version="1.0" standalone="no"?><!DOCTYPE svg PUBLIC "-//W3C//DTD SVG 1.1//EN" "http://www.w3.org/Graphics/SVG/1.1/DTD/svg11.dtd"><svg t="1706541913010" class="icon" viewBox="0 0 1024 1024" version="1.1" xmlns="http://www.w3.org/2000/svg" p-id="2134" xmlns:xlink="http://www.w3.org/1999/xlink" width="200" height="200"><path d="M748.8 868.9152c-105.8304 0-191.9488-86.1184-191.9488-191.9488s86.1184-191.9488 191.9488-191.9488 191.9488 86.1184 191.9488 191.9488-86.1184 191.9488-191.9488 191.9488z m0-322.4064c-71.936 0-130.5088 58.5216-130.5088 130.5088s58.5216 130.5088 130.5088 130.5088c71.936 0 130.5088-58.5216 130.5088-130.5088s-58.5216-130.5088-130.5088-130.5088z" fill="#7690F3" p-id="2135"></path><path d="M756.8896 150.1696H253.4912c-91.3408 0-165.6832 74.3424-165.6832 165.6832v375.6544c0 91.3408 74.3424 165.6832 165.6832 165.6832h287.3856c16.9472 0 30.72-13.7728 30.72-30.72s-13.7728-30.72-30.72-30.72H253.4912c-57.4976 0-104.2432-46.7456-104.2432-104.2432V315.8528c0-57.4976 46.7456-104.2432 104.2432-104.2432h503.3984c57.4976 0 104.2432 46.7456 104.2432 104.2432v152.832c0 16.9472 13.7728 30.72 30.72 30.72s30.72-13.7728 30.72-30.72V315.8528c0-91.3408-74.3424-165.6832-165.6832-165.6832z" fill="#333333" p-id="2136"></path><path d="M207.3088 657.7152c0 16.9472 13.7728 30.72 30.72 30.72s30.72-13.7728 30.72-30.72c0-53.8112 41.5232-98.048 94.208-102.5536 2.9184 0.2048 5.8368 0.3584 8.8064 0.3584s5.888-0.1536 8.8064-0.3584c52.6848 4.5056 94.208 48.7424 94.208 102.5536 0 16.9472 13.7728 30.72 30.72 30.72s30.72-13.7728 30.72-30.72c0-58.4704-30.72-109.8752-76.8-139.0592 21.8112-22.2208 35.328-52.6336 35.328-86.1184 0-67.7888-55.1424-122.9824-122.9824-122.9824S248.7808 364.6976 248.7808 432.5376c0 33.536 13.5168 63.9488 35.328 86.1184-46.08 29.184-76.8 80.5888-76.8 139.0592z m102.912-225.1776c0-33.9456 27.5968-61.5424 61.5424-61.5424s61.5424 27.5968 61.5424 61.5424c0 31.1808-23.3472 56.9856-53.4528 60.928-2.6624-0.1536-5.376-0.2048-8.0384-0.2048s-5.376 0.0512-8.0384 0.2048c-30.208-3.9936-53.5552-29.7472-53.5552-60.928zM771.8912 372.48h-171.4176c-16.9472 0-30.72 13.7728-30.72 30.72s13.7728 30.72 30.72 30.72h171.4176c16.9472 0 30.72-13.7728 30.72-30.72s-13.7728-30.72-30.72-30.72z" fill="#333333" p-id="2137"></path><path d="M831.1296 728.32h-90.3168c-16.9472 0-30.72-13.7728-30.72-30.72v-91.1872c0-16.9472 13.7728-30.72 30.72-30.72s30.72 13.7728 30.72 30.72v60.4672h59.5968c16.9472 0 30.72 13.7728 30.72 30.72s-13.7728 30.72-30.72 30.72z" fill="#7690F3" p-id="2138"></path></svg>