<?xml version="1.0" standalone="no"?><!DOCTYPE svg PUBLIC "-//W3C//DTD SVG 1.1//EN" "http://www.w3.org/Graphics/SVG/1.1/DTD/svg11.dtd"><svg t="1706173335667" class="icon" viewBox="0 0 1024 1024" version="1.1" xmlns="http://www.w3.org/2000/svg" p-id="1448" xmlns:xlink="http://www.w3.org/1999/xlink" width="200" height="200"><path d="M705 96c86.156 0 156 69.844 156 156v164.614c0 19.882-16.118 36-36 36s-36-16.118-36-36V252c0-46.392-37.608-84-84-84H320c-46.392 0-84 37.608-84 84v520c0 46.392 37.608 84 84 84h128.727c19.882 0 36 16.118 36 36s-16.118 36-36 36H320c-86.156 0-156-69.844-156-156V252c0-86.156 69.844-156 156-156h385z" fill="#000000" p-id="1449"></path><path d="M683 315.5c19.882 0 36 16.118 36 36s-16.118 36-36 36H341c-19.882 0-36-16.118-36-36s16.118-36 36-36h342zM341.122 545.5l141.74 0.479c19.883 0.067 35.946 16.239 35.879 36.121-0.067 19.882-16.24 35.946-36.122 35.879l-141.74-0.48c-19.883-0.066-35.946-16.238-35.879-36.12 0.067-19.883 16.24-35.946 36.122-35.879z" fill="#000000" p-id="1450"></path><path d="M938.623 526.987c-47.84-47.84-125.402-47.84-173.241 0L547.04 745.327a36 36 0 0 0-10.543 25.831l1.26 121.07c0.203 19.59 16.034 35.42 35.623 35.624l121.07 1.26a36 36 0 0 0 25.83-10.543l218.342-218.341c47.84-47.84 47.84-125.402 0-173.241z m-50.912 50.911l0.586 0.596c19.134 19.764 18.938 51.298-0.586 70.822l-207.64 207.64-70.684-0.735-0.735-70.681 207.641-207.642c19.722-19.721 51.697-19.721 71.418 0z" fill="#ED6D0F" p-id="1451"></path></svg>