<?xml version="1.0" standalone="no"?><!DOCTYPE svg PUBLIC "-//W3C//DTD SVG 1.1//EN" "http://www.w3.org/Graphics/SVG/1.1/DTD/svg11.dtd"><svg t="1706541878037" class="icon" viewBox="0 0 1024 1024" version="1.1" xmlns="http://www.w3.org/2000/svg" p-id="1982" xmlns:xlink="http://www.w3.org/1999/xlink" width="200" height="200"><path d="M521.0112 934.7584c-217.1904 0-393.8816-155.2896-393.8816-346.112 0-105.728 53.9648-203.8272 146.3296-269.2608A132.74112 132.74112 0 0 1 244.736 237.056c0-72.2432 57.6512-131.0208 128.5632-131.0208 19.6608 0 39.0144 4.6592 56.4736 13.3632 23.8592-24.5248 56.7296-38.912 91.2384-38.912s67.3792 14.3872 91.2384 38.912c17.4592-8.704 36.7616-13.3632 56.4736-13.3632 70.912 0 128.5632 58.7776 128.5632 131.0208 0 30.3104-10.4448 59.3408-28.7232 82.3296 92.3648 65.3824 146.3296 163.4816 146.3296 269.2608 0 190.8736-176.6912 346.112-393.8816 346.112zM373.2992 167.4752c-37.0176 0-67.1232 31.232-67.1232 69.5808 0 24.7296 12.9024 47.8208 33.6896 60.2624a30.6688 30.6688 0 0 1 14.9504 26.7776c-0.1536 10.9568-6.144 20.992-15.6672 26.368-94.2592 52.992-150.5792 142.0288-150.5792 238.1824 0 156.9792 149.1456 284.672 332.4416 284.672s332.4416-127.6928 332.4416-284.672c0-96.2048-56.32-185.1904-150.5792-238.1824a30.68928 30.68928 0 0 1-15.6672-26.368 30.6688 30.6688 0 0 1 14.9504-26.7776c20.7872-12.4416 33.6896-35.5328 33.6896-60.2624 0-38.3488-30.1056-69.5808-67.1232-69.5808-15.9744 0-30.9248 5.6832-43.2128 16.4352a30.72 30.72 0 0 1-46.848-7.8336c-12.288-21.3504-33.8432-34.1504-57.6512-34.1504s-45.3632 12.7488-57.6512 34.1504a30.7968 30.7968 0 0 1-21.5552 15.0016c-9.1136 1.4848-18.3808-1.1264-25.2928-7.168-12.1344-10.5984-27.4432-16.4352-43.2128-16.4352z" fill="#333333" p-id="1983"></path><path d="M631.3984 612.7616h-82.0736v-44.3904h82.0736c16.9472 0 30.72-13.7728 30.72-30.72s-13.7728-30.72-30.72-30.72h-46.848l54.6816-53.4528a30.78144 30.78144 0 0 0 0.512-43.4688 30.78144 30.78144 0 0 0-43.4688-0.512l-77.7216 75.9296L440.9344 409.6c-12.1344-11.8784-31.5904-11.6736-43.4176 0.4608-11.8784 12.1344-11.6736 31.5904 0.4608 43.4176L452.608 506.9312h-46.7968c-16.9472 0-30.72 13.7728-30.72 30.72s13.7728 30.72 30.72 30.72h82.0736v44.3904H405.8112c-16.9472 0-30.72 13.7728-30.72 30.72s13.7728 30.72 30.72 30.72h82.0736v54.4768c0 16.9472 13.7728 30.72 30.72 30.72s30.72-13.7728 30.72-30.72v-54.4768h82.0736c16.9472 0 30.72-13.7728 30.72-30.72s-13.7216-30.72-30.72-30.72z" fill="#7690F3" p-id="1984"></path></svg>