<?xml version="1.0" standalone="no"?><!DOCTYPE svg PUBLIC "-//W3C//DTD SVG 1.1//EN" "http://www.w3.org/Graphics/SVG/1.1/DTD/svg11.dtd"><svg t="1706171564774" class="icon" viewBox="0 0 1024 1024" version="1.1" xmlns="http://www.w3.org/2000/svg" p-id="926" xmlns:xlink="http://www.w3.org/1999/xlink" width="200" height="200"><path d="M766.8224 928.4096h-491.52A173.0048 173.0048 0 0 1 102.4 755.6096v-497.664a173.0048 173.0048 0 0 1 173.0048-172.8h491.52a173.0048 173.0048 0 0 1 172.8 172.8v497.664a173.0048 173.0048 0 0 1-172.9024 172.8z m-491.52-781.824A111.5136 111.5136 0 0 0 163.84 257.9456v497.664a111.5136 111.5136 0 0 0 111.36 111.36h491.52a111.5136 111.5136 0 0 0 111.36-111.36v-497.664a111.5136 111.5136 0 0 0-111.36-111.36z" fill="#00A0E9" p-id="927"></path><path d="M758.3744 701.44L670.72 612.4032a205.6192 205.6192 0 1 0-43.5712 43.3152l87.6544 88.7808a30.72 30.72 0 0 0 43.7248-43.1104z m-252.6208-67.3792a143.7184 143.7184 0 1 1 143.7184-143.7184 143.872 143.872 0 0 1-143.7184 143.7184z" fill="#F39800" p-id="928"></path></svg>