<?xml version="1.0" standalone="no"?><!DOCTYPE svg PUBLIC "-//W3C//DTD SVG 1.1//EN" "http://www.w3.org/Graphics/SVG/1.1/DTD/svg11.dtd"><svg t="1706541333926" class="icon" viewBox="0 0 1024 1024" version="1.1" xmlns="http://www.w3.org/2000/svg" p-id="1679" xmlns:xlink="http://www.w3.org/1999/xlink" width="200" height="200"><path d="M244.7872 778.3424c-54.016 0-97.9968-43.9808-97.9968-97.9968V335.8208c0-54.016 43.9808-97.9968 97.9968-97.9968s97.9968 43.9808 97.9968 97.9968v344.5248c0 54.016-43.9296 97.9968-97.9968 97.9968z m0-479.0784c-20.1728 0-36.5568 16.384-36.5568 36.5568v344.5248c0 20.1728 16.384 36.5568 36.5568 36.5568s36.5568-16.384 36.5568-36.5568V335.8208c0-20.1728-16.384-36.5568-36.5568-36.5568z" fill="#333333" p-id="1680"></path><path d="M749.8752 778.3424c-54.016 0-97.9968-43.9808-97.9968-97.9968V384.3072c0-54.016 43.9808-97.9968 97.9968-97.9968s97.9968 43.9808 97.9968 97.9968v296.0384c0 54.016-43.9296 97.9968-97.9968 97.9968z m0-430.592c-20.1728 0-36.5568 16.384-36.5568 36.5568v296.0384c0 20.1728 16.384 36.5568 36.5568 36.5568s36.5568-16.384 36.5568-36.5568V384.3072c0-20.1728-16.384-36.5568-36.5568-36.5568z" fill="#7690F3" p-id="1681"></path><path d="M499.6096 778.3424c-54.016 0-97.9968-43.9808-97.9968-97.9968v-464.384c0-54.016 43.9808-97.9968 97.9968-97.9968s97.9968 43.9808 97.9968 97.9968v464.384c0 54.016-43.9808 97.9968-97.9968 97.9968z m0-598.9376c-20.1728 0-36.5568 16.384-36.5568 36.5568v464.384c0 20.1728 16.384 36.5568 36.5568 36.5568s36.5568-16.384 36.5568-36.5568v-464.384c0-20.1728-16.384-36.5568-36.5568-36.5568zM903.1168 909.1584H114.5856c-16.9472 0-30.72-13.7728-30.72-30.72s13.7728-30.72 30.72-30.72h788.5312c16.9472 0 30.72 13.7728 30.72 30.72s-13.7728 30.72-30.72 30.72z" fill="#333333" p-id="1682"></path></svg>